# xmcd
# 
# Track frame offsets:
#     187
#     22237
#     41475
#     63487
# 
# Disc length: 1100
# 
# Revision: 0
# Processed by: cddbd v1.5.2PL0 Copyright (c) Steve Scherf et al.
# Submitted via: fre:ac v1.0.17
# 
DISCID=32044a04
DTITLE=miho nakayama - Hero (For You)
DYEAR=1994
DGENRE=JPop
TTITLE0=HERO
TTITLE1=Hero (acappella version)
TTITLE2=Hero (original Karaoke)
TTITLE3=Hero (original Karaoke - Acappella version)
EXTD=YEAR: 1994
EXTT0=
EXTT1=
EXTT2=
EXTT3=
PLAYORDER=
